<svg id="Layer_1" data-name="Layer 1" xmlns="http://www.w3.org/2000/svg" width="226.99" height="51.18" viewBox="0 0 226.99 51.18"><title>Mailchimp logo - Brandlogos.net</title><path d="M281.51,385a4.81,4.81,0,0,0-1.13.08,4.73,4.73,0,0,0-3.92,5.43v.08c.27,2.55,3,4.7,5.51,4.76a4.23,4.23,0,0,0,.77-.05c2.72-.44,3.44-3.25,3-6A4.68,4.68,0,0,0,281.51,385Zm2.67,7.37a1.14,1.14,0,0,1-1.06.5,1.43,1.43,0,0,1-1.32-1.45,3.53,3.53,0,0,1,.27-1.41,1.28,1.28,0,0,0-.53-1.59,1.48,1.48,0,0,0-1.08-.19,1.39,1.39,0,0,0-.89.58,3,3,0,0,0-.32.73l0,.1c-.12.31-.32.41-.45.39a.26.26,0,0,1-.21-.19,2.67,2.67,0,0,1,.75-2.33,2.44,2.44,0,0,1,2-.69,2.4,2.4,0,0,1,1.84,1.27,2.78,2.78,0,0,1-.23,2.58l-.08.18a1,1,0,0,0,0,1,.73.73,0,0,0,.6.29,1.39,1.39,0,0,0,.33,0c.14,0,.28-.06.37,0a.21.21,0,0,1,0,.24Z" transform="translate(-270.5 -358.41)" style="fill:#fff"/><path d="M316.31,397.57a14.21,14.21,0,0,0,1-4.52c0-1.9-1.08-2.69-1.76-2.69,0-.07-.16-.57-.34-1.17a9.38,9.38,0,0,0-.38-1,3.69,3.69,0,0,0,.66-2.69,3.4,3.4,0,0,0-1-1.92,8.05,8.05,0,0,0-3.5-1.73l-.89-.25s0-2.1-.09-3a10.21,10.21,0,0,0-.39-2.62,7,7,0,0,0-1.82-3.24c2.22-2.3,3.6-4.83,3.6-7,0-4.17-5.14-5.44-11.46-2.82l-1.34.57-2.46-2.41c-7.21-6.28-29.76,18.74-22.55,24.82l1.58,1.33a7.72,7.72,0,0,0-.44,3.57,7,7,0,0,0,2.43,4.51,7.41,7.41,0,0,0,4.77,1.92c2.8,6.45,9.21,10.41,16.73,10.64C306.71,408.13,313.48,404.35,316.31,397.57Zm1.65-7.64a4.81,4.81,0,0,1,1,3.12,15.69,15.69,0,0,1-1.09,5.13l0,0a17.78,17.78,0,0,1-7.28,8.43,21.7,21.7,0,0,1-11.21,2.94h-.77a21.77,21.77,0,0,1-11-3.24,18.8,18.8,0,0,1-6.81-7.48A9.32,9.32,0,0,1,276,396.6a8.71,8.71,0,0,1-3-5.61,9.7,9.7,0,0,1,.18-3.17l-.73-.62a5.73,5.73,0,0,1-2-4.09,11.63,11.63,0,0,1,.82-4.75c1.5-4.1,5-9,9.24-13.05a34.41,34.41,0,0,1,6.32-4.85,13.12,13.12,0,0,1,6.36-2,5.88,5.88,0,0,1,4,1.42l1.73,1.68.31-.13a18,18,0,0,1,6.72-1.49c4.29,0,7.07,2.3,7.07,5.86,0,2.2-1.08,4.66-3.07,7a9.73,9.73,0,0,1,1.21,2.71,11.93,11.93,0,0,1,.46,3c0,.44,0,1.15.05,1.77a9.41,9.41,0,0,1,4,2.1,5,5,0,0,1,1.43,2.81,5.18,5.18,0,0,1-.47,3.09l.13.39.11.35a3.57,3.57,0,0,1,1.07.89Z" transform="translate(-270.5 -358.41)" style="fill:#fff"/><path d="M312.86,387.85a2.55,2.55,0,0,0,.8-2,1.76,1.76,0,0,0-.5-1,6.26,6.26,0,0,0-2.75-1.32c-.46-.13-.78-.22-1.11-.33-.6-.2-.9-.36-1-1.5,0-.5-.12-2.24-.15-3-.05-1.26-.2-3-1.26-3.69a1.76,1.76,0,0,0-.9-.29,1.69,1.69,0,0,0-.54.05,2.83,2.83,0,0,0-1.4.8,4.81,4.81,0,0,1-3.67,1.24c-.74,0-1.52-.15-2.42-.2l-.53,0a4.84,4.84,0,0,0-4.67,4.27c-.51,3.58,2,5.43,2.79,6.51a.91.91,0,0,1,.2.49.78.78,0,0,1-.26.51h0a9.24,9.24,0,0,0-2,8.6,7.15,7.15,0,0,0,.37,1c1.87,4.42,7.67,6.48,13.34,4.61a13.83,13.83,0,0,0,2.15-.92,11.32,11.32,0,0,0,3.3-2.49,10,10,0,0,0,2.75-5.44c.17-1.14-.08-1.58-.42-1.79a1.24,1.24,0,0,0-.79-.15,11.09,11.09,0,0,0-.75-2.6Z" transform="translate(-270.5 -358.41)" style="fill:#fff"/><path d="M303.57,370.78c.09,0,.15-.14.07-.18a10.26,10.26,0,0,0-4.37-1.14.08.08,0,0,1-.06-.13,4.45,4.45,0,0,1,.82-.82.08.08,0,0,0-.06-.15,11.61,11.61,0,0,0-5.23,1.84.08.08,0,0,1-.12-.08,5.74,5.74,0,0,1,.55-1.35.08.08,0,0,0-.1-.11,21.22,21.22,0,0,0-6,4.86.08.08,0,0,0,.11.12,18.21,18.21,0,0,1,6.43-2.84,17.83,17.83,0,0,1,7.92,0" transform="translate(-270.5 -358.41)" style="fill:#fff"/><path d="M296.9,364.39s-2-2.27-2.55-2.44c-3.64-1-11.52,4.44-16.54,11.6-2,2.9-4.95,8-3.55,10.67a10.65,10.65,0,0,0,1.66,1.6,6.2,6.2,0,0,1,3.92-2.49,31.83,31.83,0,0,1,10.05-14.11,51.33,51.33,0,0,1,7-4.83" transform="translate(-270.5 -358.41)" style="fill:#fff"/><path d="M284,392.24a.22.22,0,0,1,0,.25,1.08,1.08,0,0,1-1,.51,1.42,1.42,0,0,1-1.27-1.47,3.77,3.77,0,0,1,.26-1.43,1.34,1.34,0,0,0-.5-1.61,1.36,1.36,0,0,0-1-.19,1.33,1.33,0,0,0-.85.59,3.15,3.15,0,0,0-.31.74l0,.1c-.12.32-.31.41-.44.4s-.14,0-.2-.2a2.82,2.82,0,0,1,.72-2.37,2.27,2.27,0,0,1,2-.71,2.31,2.31,0,0,1,1.77,1.29,3,3,0,0,1-.22,2.62l-.08.18a1.08,1.08,0,0,0,0,1,.69.69,0,0,0,.58.3,1.27,1.27,0,0,0,.32,0c.13,0,.27-.06.36,0m33.17.83a14.24,14.24,0,0,1-1,4.51c-2.82,6.77-9.54,10.54-17.55,10.3-7.47-.22-13.83-4.17-16.62-10.61a7.34,7.34,0,0,1-4.74-1.92,7,7,0,0,1-2.42-4.5,7.74,7.74,0,0,1,.44-3.56l-1.56-1.33c-7.16-6.06,15.24-31,22.4-24.77l2.44,2.4L300,363c6.28-2.61,11.38-1.35,11.39,2.81,0,2.17-1.37,4.69-3.58,7a7,7,0,0,1,1.81,3.23,10.22,10.22,0,0,1,.39,2.62c0,.88.08,2.94.08,3l.88.25a8,8,0,0,1,3.47,1.73,3.4,3.4,0,0,1,1,1.92,3.69,3.69,0,0,1-.66,2.68,9.42,9.42,0,0,1,.38,1c.19.6.32,1.09.34,1.16.68,0,1.75.79,1.75,2.69Zm-31.64-3.72c-.49-3.16-2.62-4.28-4.07-4.36a4.39,4.39,0,0,0-1.08.08c-2.58.52-4,2.73-3.75,5.59a5.78,5.78,0,0,0,5.29,4.84,3.84,3.84,0,0,0,.74-.05C285.32,395,286,392.16,285.57,389.36ZM290,369.29a51,51,0,0,1,7-4.82S295,362.2,294.42,362c-3.62-1-11.44,4.43-16.44,11.58-2,2.89-4.91,8-3.53,10.65a10.59,10.59,0,0,0,1.65,1.6,6.16,6.16,0,0,1,3.89-2.49A31.76,31.76,0,0,1,290,369.29Zm7.87,25a2.39,2.39,0,0,0,1.69,1.77,7.61,7.61,0,0,0,1.33.36c5.73,1,11.08-2.3,12.29-3.12.09-.06.15,0,.08.11l-.12.17c-1.48,1.91-5.44,4.12-10.6,4.12-2.25,0-4.5-.8-5.33-2-1.28-1.9-.06-4.66,2.07-4.38l.94.11a19.51,19.51,0,0,0,9.72-1.56c2.91-1.36,4-2.85,3.85-4.06a1.74,1.74,0,0,0-.5-1,6.28,6.28,0,0,0-2.75-1.31c-.46-.13-.78-.21-1.11-.33-.6-.2-.9-.36-1-1.49,0-.5-.12-2.22-.15-2.94-.05-1.25-.2-3-1.26-3.67a1.77,1.77,0,0,0-.9-.29,1.71,1.71,0,0,0-.54.05,2.84,2.84,0,0,0-1.41.8,4.84,4.84,0,0,1-3.67,1.23c-.74,0-1.52-.15-2.42-.2l-.53,0a4.83,4.83,0,0,0-4.67,4.24c-.51,3.55,2.05,5.39,2.79,6.47a.9.9,0,0,1,.2.48.77.77,0,0,1-.26.51h0a9.12,9.12,0,0,0-2,8.54,7.07,7.07,0,0,0,.38,1c1.87,4.39,7.68,6.43,13.35,4.57a13.92,13.92,0,0,0,2.16-.91,11.33,11.33,0,0,0,3.3-2.47,9.86,9.86,0,0,0,2.75-5.41c.17-1.13-.08-1.57-.42-1.78a1.25,1.25,0,0,0-.79-.15,11,11,0,0,0-.75-2.58,16.53,16.53,0,0,1-5.4,2.7,21.82,21.82,0,0,1-7.23.78c-1.57-.13-2.6-.59-3,.69a16.89,16.89,0,0,0,7.37.75.13.13,0,0,1,.15.12h0a.14.14,0,0,1-.08.14S302.47,395.74,297.85,394.3Zm-8.52-20.61a18.05,18.05,0,0,1,6.39-2.83,17.63,17.63,0,0,1,7.87,0c.09,0,.15-.14.07-.18a10.16,10.16,0,0,0-4.34-1.14.08.08,0,0,1-.06-.13,4.43,4.43,0,0,1,.82-.82.08.08,0,0,0-.05-.15,11.51,11.51,0,0,0-5.2,1.84.08.08,0,0,1-.12-.08,5.74,5.74,0,0,1,.55-1.35.08.08,0,0,0-.1-.11,21.11,21.11,0,0,0-5.92,4.85.08.08,0,0,0,.11.12Zm15.08,12.06a.75.75,0,0,0,1-.16c.14-.28-.07-.66-.47-.85a.75.75,0,0,0-1,.17C303.8,385.19,304,385.57,304.41,385.76Zm1.24-4.53a3.42,3.42,0,0,0,.61,1.39,3.89,3.89,0,0,1,1,0,2.94,2.94,0,0,0,0-1.71c-.23-1-.54-1.66-1.17-1.57S305.42,380.19,305.65,381.23Zm1.36,2.38a.8.8,0,1,0,.58.78A.7.7,0,0,0,307,383.61Z" transform="translate(-270.5 -358.41)"/><path d="M296.42,383.51c-.1,0-.15-.06-.16-.12s.24-.47.53-.69a3.06,3.06,0,0,1,3-.36,2.55,2.55,0,0,1,1.12.9c.1.17.12.3.06.37s-.37,0-.8-.21a3.55,3.55,0,0,0-1.68-.36A18.57,18.57,0,0,0,296.42,383.51Zm4.32.89a1.64,1.64,0,0,0-1.48-.48,2,2,0,0,0-1.08.45.69.69,0,0,0-.28.43.13.13,0,0,0,0,.1.14.14,0,0,0,.09,0,1.72,1.72,0,0,0,.41-.11,3.6,3.6,0,0,1,1.82-.19c.28,0,.42,0,.48,0A.16.16,0,0,0,300.74,384.4Z" transform="translate(-270.5 -358.41)"/><path d="M299.94,384.66a3.82,3.82,0,0,0,0-2c-.23-1-.58-1.63-1.23-1.53s-.66.93-.45,2a3.81,3.81,0,0,0,.55,1.34c.51.72.86.53,1.1.17Z" transform="translate(-270.5 -358.41)"/><path d="M348.71,381.48c-3.12,0-4.67,2.45-5.37,4-.4.89-.51,1.58-.83,1.58s-.12-.6-.5-2a4.89,4.89,0,0,0-5.08-3.67c-3.28,0-4.68,2.77-5.35,4.29-.45,1-.45,1.33-.81,1.33-.51,0-.09-.83.14-1.79a7.94,7.94,0,0,0,.1-3.37h-5.18v19.53h7.1v-9.72c0-1.92.81-4.35,2.18-4.35,1.59,0,1.91,1.22,1.91,3.47v10.6h7.12v-9.73c0-1.7.69-4.35,2.19-4.35s1.9,1.71,1.9,3.47v10.6h7V390c0-5.1-1.79-8.49-6.51-8.49Z" transform="translate(-270.5 -358.41)"/><path d="M469.11,381.48c-3.12,0-4.67,2.45-5.37,4-.4.89-.51,1.58-.83,1.58s-.15-.77-.5-2a4.82,4.82,0,0,0-5.08-3.67c-3.26,0-4.68,2.77-5.35,4.29-.45,1-.45,1.33-.81,1.33-.51,0-.09-.83.14-1.79a7.94,7.94,0,0,0,.1-3.37h-5.2v19.53h7.1v-9.72c0-1.92.81-4.35,2.18-4.35,1.59,0,1.91,1.22,1.91,3.47v10.6h7.12v-9.73c0-1.7.69-4.35,2.19-4.35s1.9,1.71,1.9,3.47v10.6h7V390c0-5.1-1.79-8.49-6.51-8.49Z" transform="translate(-270.5 -358.41)"/><path d="M367.33,381.48a22.32,22.32,0,0,0-9.33,2v5.87s4.3-2.48,7.8-2.48c2.79,0,3.13,1.5,3,2.75a15.07,15.07,0,0,0-3.26-.22c-5.78,0-8.7,2.62-8.7,6.84,0,4,3.28,5.67,6,5.67a6.65,6.65,0,0,0,6.35-4c.37-.9.44-1.49.78-1.49s.26.43.24,1.32a14.7,14.7,0,0,0,.28,3.72h5.35v-9.62c0-6-2.12-10.38-8.56-10.38Zm-1.73,15.42c-1.69.39-2.58-.14-2.58-1.26,0-1.54,1.59-2.16,3.86-2.16,1,0,1.94.09,1.94.09a5.06,5.06,0,0,1-3.24,3.33Z" transform="translate(-270.5 -358.41)"/><rect x="117.07" y="17.6" width="7.1" height="25.46"/><path d="M402.48,391.7c0-1.76,1.64-3.35,4.63-3.35a12.93,12.93,0,0,1,6.48,1.93v-6.79s-2.08-2-7.18-2c-5.37,0-9.86,3.15-9.86,9.91s4.07,10.53,9.83,10.53a11.24,11.24,0,0,0,7.2-2.48V393a12.42,12.42,0,0,1-6.46,2.12c-3.43,0-4.67-1.58-4.67-3.41Z" transform="translate(-270.5 -358.41)"/><path d="M428,381.48c-4.11,0-5.67,3.9-6,4.57s-.47,1.07-.73,1.06c-.44,0-.14-.83,0-1.35a23,23,0,0,0,1-6.82A9,9,0,0,0,422,376h-6.12v25.45H423v-9.72c0-1.58.64-4.35,2.42-4.35,1.48,0,1.94,1.1,1.94,3.3v10.77h7.1V391.12c0-5-.83-9.65-6.48-9.65Z" transform="translate(-270.5 -358.41)"/><path d="M436.75,382v19.51h7.1V382a7.55,7.55,0,0,1-3.54.69A7.63,7.63,0,0,1,436.75,382Z" transform="translate(-270.5 -358.41)"/><ellipse cx="169.77" cy="20.23" rx="4.34" ry="2.84"/><path d="M378.19,382v19.51h7.1V382a7.55,7.55,0,0,1-3.54.69A7.63,7.63,0,0,1,378.19,382Z" transform="translate(-270.5 -358.41)"/><ellipse cx="111.21" cy="20.23" rx="4.34" ry="2.84"/><path d="M489.71,381.48a6.63,6.63,0,0,0-6,4.29c-.48,1-.45,1.33-.81,1.33-.51,0-.09-.83.14-1.79a7.94,7.94,0,0,0,.1-3.37h-5.2v24.94H485V399a5.56,5.56,0,0,0,4.79,2.94c5.13,0,7.71-4.34,7.71-10.21,0-6.64-3.09-10.22-7.8-10.22Zm-1.94,15.8c-1.62,0-2.83-2.07-2.83-4.94s1.23-4.94,2.77-4.94c2,0,2.82,1.81,2.82,4.94S489.75,397.28,487.76,397.28Z" transform="translate(-270.5 -358.41)"/><path d="M351.28,371.87a4.57,4.57,0,0,0,9.13,0V366.1h-2.48v5.47a2.11,2.11,0,1,1-4.2,0V366.1h-2.48v5.77Z" transform="translate(-270.5 -358.41)"/><path d="M367,368.41h3V376h2.48v-7.6h3v-2.32H367v2.32Z" transform="translate(-270.5 -358.41)"/><path d="M365.43,366.09H363V376h2.48Z" transform="translate(-270.5 -358.41)"/><path d="M341.28,368.41h3V376h2.48v-7.6h3v-2.32h-8.38v2.32Z" transform="translate(-270.5 -358.41)"/><path d="M328.32,366.09h-2.48V376h2.48Z" transform="translate(-270.5 -358.41)"/><path d="M340,370.25a4.58,4.58,0,0,0-9.14,0V376h2.48v-5.47a2.11,2.11,0,1,1,4.2,0V376H340v-5.77Z" transform="translate(-270.5 -358.41)"/></svg>